<?xml version="1.0" standalone="no"?>
<!DOCTYPE svg PUBLIC "-//W3C//DTD SVG 20010904//EN"
 "http://www.w3.org/TR/2001/REC-SVG-20010904/DTD/svg10.dtd">
<svg version="1.0" xmlns="http://www.w3.org/2000/svg"
 width="600.000000pt" height="600.000000pt" viewBox="0 0 600.000000 600.000000"
 preserveAspectRatio="xMidYMid meet">
<metadata>
Created by potrace 1.11, written by Peter Selinger 2001-2013
</metadata>
<g transform="translate(0.000000,600.000000) scale(0.100000,-0.100000)"
fill="#000000" stroke="none">
<path d="M4649 4906 c-104 -37 -170 -112 -193 -217 -8 -36 -51 -53 -331 -133
-395 -112 -478 -155 -958 -498 -131 -94 -239 -169 -241 -167 -1 2 -14 25 -29
50 -34 60 -107 125 -171 154 -51 23 -53 25 -75 92 -64 197 -208 345 -395 407
-120 41 -299 39 -433 -2 l-59 -19 -49 33 c-107 73 -270 105 -442 86 -388 -41
-730 -271 -843 -568 -28 -73 -37 -209 -21 -294 l12 -60 -29 -25 c-17 -14 -44
-47 -62 -75 -92 -143 -82 -334 25 -479 81 -110 189 -163 331 -162 72 0 87 -3
109 -22 23 -20 24 -26 15 -56 -21 -72 24 -157 93 -178 23 -7 31 -15 30 -29 -1
-11 -42 -114 -91 -229 -368 -864 -462 -1088 -460 -1091 6 -6 621 95 629 103 4
5 35 74 69 154 l62 145 79 12 c156 23 336 95 456 183 l51 38 -25 -62 c-69
-167 -9 -291 158 -329 l54 -12 -45 -8 c-25 -4 -207 -35 -405 -69 -198 -34
-363 -64 -367 -68 -9 -8 -319 -734 -315 -737 1 -1 49 6 107 16 58 10 332 57
610 105 278 47 622 106 765 130 143 25 747 128 1341 230 595 102 1124 196
1175 209 513 134 847 428 899 794 19 137 -25 279 -112 357 -65 59 -128 79
-228 73 l-78 -5 35 81 c20 45 66 152 102 238 60 139 75 164 129 223 71 75 136
199 153 289 13 71 -6 177 -51 287 -47 113 -76 155 -182 267 -60 63 -130 152
-181 230 -46 70 -114 163 -151 207 -82 98 -110 143 -147 242 -32 85 -65 127
-124 154 -47 22 -143 24 -196 5z m177 -55 c50 -23 67 -46 94 -127 27 -81 72
-154 157 -256 39 -45 105 -136 147 -201 50 -77 113 -157 181 -228 88 -92 112
-125 150 -202 78 -162 95 -294 49 -396 l-20 -45 -21 37 c-44 74 -165 117 -231
83 l-27 -14 3 70 c3 59 0 77 -24 126 -30 63 -147 185 -273 287 -86 69 -137
140 -176 244 -16 42 -48 99 -76 135 -137 173 -191 272 -205 377 -6 44 -5 48
28 72 77 59 167 73 244 38z m-362 -284 c9 -62 55 -152 114 -225 32 -40 63 -93
83 -145 17 -45 40 -100 51 -122 27 -53 116 -145 208 -215 42 -32 87 -73 101
-91 47 -62 199 -331 193 -341 -16 -26 -75 -38 -152 -32 -73 5 -79 4 -122 -23
-25 -17 -57 -33 -71 -36 -36 -9 -76 -43 -95 -80 -9 -17 -27 -72 -41 -121 -25
-96 -44 -129 -64 -109 -8 8 -7 46 2 141 11 121 11 132 -7 168 -27 55 -67 67
-187 54 -51 -5 -145 -10 -210 -10 -65 0 -127 -5 -139 -11 -31 -16 -48 -71 -48
-152 0 -51 -5 -79 -15 -93 -15 -18 -16 -18 -28 0 -36 55 -50 67 -76 64 -38 -4
-68 -72 -81 -183 -16 -142 -29 -185 -56 -197 -46 -21 -49 -6 -49 235 0 243 -4
266 -56 288 -27 10 -38 7 -127 -36 -147 -72 -193 -85 -291 -85 -65 0 -113 -8
-196 -31 -124 -34 -309 -49 -380 -30 -22 5 -65 16 -95 24 -59 15 -57 11 -73
121 l-6 39 22 -21 c71 -66 219 -44 266 40 13 23 13 28 -3 53 -10 15 -31 34
-47 43 -36 21 -36 27 1 42 16 7 50 35 75 64 25 28 60 66 78 83 27 27 30 36 20
51 -6 10 -13 48 -14 84 l-4 66 105 74 c58 41 175 124 260 185 262 187 445 291
615 346 44 15 167 51 273 81 106 31 205 62 220 70 38 21 39 21 46 -27z m-2865
-45 c81 -32 127 -66 158 -119 54 -93 23 -207 -82 -299 -56 -50 -48 -56 26 -19
146 75 211 211 164 345 -8 23 -15 44 -15 45 0 12 113 30 185 29 158 -2 321
-74 421 -188 45 -51 107 -163 98 -178 -3 -4 -29 -8 -58 -8 -65 0 -116 -9 -116
-21 0 -5 15 -9 33 -9 18 0 60 -7 92 -15 237 -61 346 -208 270 -362 -27 -54
-68 -88 -149 -124 -58 -25 -127 -29 -246 -11 -48 7 -115 10 -155 6 -114 -10
-195 24 -195 82 0 32 47 84 97 106 24 10 43 22 43 25 0 13 -123 -7 -165 -27
-25 -12 -90 -64 -144 -115 -54 -52 -116 -102 -138 -113 -57 -29 -152 -45 -241
-40 -149 9 -238 85 -296 253 l-7 20 -12 -20 c-6 -11 -12 -48 -12 -81 0 -52 6
-73 38 -133 54 -104 49 -131 -31 -178 -26 -15 -100 -62 -164 -104 -132 -87
-197 -113 -283 -113 -125 0 -237 69 -292 182 -24 48 -28 69 -28 137 1 67 5 89
28 135 60 118 173 202 352 262 l110 36 -60 -5 c-33 -2 -95 -11 -138 -20 -43
-8 -82 -12 -85 -8 -4 4 -7 48 -7 98 0 83 3 99 32 160 88 186 340 349 628 406
86 17 282 7 344 -17z m774 -1037 c72 -22 81 -38 72 -121 l-7 -64 -41 7 c-111
20 -461 -3 -416 -27 8 -4 75 -10 149 -14 74 -3 164 -12 200 -19 l65 -13 -162
-7 c-353 -14 -648 -88 -989 -247 -57 -27 -104 -47 -104 -45 0 4 168 111 252
160 37 21 66 40 64 42 -7 7 -199 -68 -291 -114 -53 -26 -80 -35 -66 -23 29 25
168 112 275 171 41 24 74 44 72 47 -12 12 -328 -128 -419 -185 -22 -14 -36
-20 -33 -15 11 19 243 171 352 232 60 33 102 60 94 60 -45 0 -337 -134 -480
-221 -65 -39 47 56 135 116 191 128 446 229 695 275 155 29 150 28 345 25 138
-2 193 -7 238 -20z m347 -115 c0 -5 -11 -10 -25 -10 -14 0 -25 5 -25 10 0 6
11 10 25 10 14 0 25 -4 25 -10z m1268 -272 c24 -47 63 -58 102 -30 33 25 160
47 330 57 52 3 116 8 143 11 l47 5 0 -43 c0 -40 -4 -46 -55 -86 -33 -25 -61
-40 -68 -35 -7 4 -34 24 -60 45 -27 21 -59 38 -70 38 -12 0 -65 -12 -117 -25
-56 -15 -139 -28 -204 -32 l-109 -6 7 39 c9 53 27 106 33 100 3 -2 12 -19 21
-38z m829 36 c-3 -3 -12 -4 -19 -1 -8 3 -5 6 6 6 11 1 17 -2 13 -5z m-2852
-60 c24 -10 45 -58 45 -104 0 -23 -11 -76 -25 -117 -26 -77 -159 -363 -169
-363 -3 0 8 37 26 83 132 351 140 443 43 482 -18 7 -17 9 10 15 42 10 51 11
70 4z m1755 -69 c0 -8 -17 -19 -42 -25 -55 -15 -115 -50 -152 -89 l-29 -30
-34 28 -34 28 -117 -29 c-98 -25 -155 -31 -352 -42 -219 -12 -239 -15 -285
-39 -56 -28 -110 -81 -145 -142 -13 -22 -24 -41 -25 -42 -1 -2 -34 7 -74 19
l-72 22 59 21 c33 12 80 33 104 48 57 33 144 128 153 166 l6 28 142 7 c260 12
430 27 637 56 248 34 260 34 260 15z m1483 -26 c-1 -15 -41 -118 -89 -230 -48
-112 -90 -219 -95 -238 -10 -44 3 -76 38 -95 l28 -15 -38 -1 c-74 0 -96 32
-77 116 6 26 49 136 95 245 47 109 85 205 85 213 0 10 -9 16 -22 17 -22 0 -22
1 -3 9 11 5 34 8 50 7 26 -2 30 -6 28 -28z m-2694 -13 c24 -28 -36 -92 -117
-127 -57 -25 -65 -24 -22 2 85 51 117 110 66 123 -14 3 -33 3 -43 0 -15 -5
-15 -4 -3 5 22 16 105 14 119 -3z m2361 -6 c12 -7 11 -10 -5 -15 -55 -18 -87
-38 -104 -65 -10 -17 -62 -135 -116 -262 -82 -195 -96 -237 -92 -270 4 -28 2
-38 -9 -38 -24 0 -47 47 -41 84 6 36 189 474 215 514 17 26 84 62 117 62 11 0
27 -4 35 -10z m-3712 -679 c-224 -530 -266 -622 -286 -627 -13 -4 -25 -4 -28
-1 -3 2 114 285 260 628 206 486 270 625 288 635 19 10 24 10 26 -1 2 -8 -115
-293 -260 -634z m3048 564 c4 -8 -2 -27 -12 -43 -23 -36 -229 -240 -374 -372
-127 -116 -124 -109 36 65 187 203 255 287 252 308 -2 13 -16 25 -38 32 l-35
13 30 4 c71 11 136 8 141 -7z m-938 -164 c3 -20 -32 -59 -200 -225 -249 -245
-338 -320 -187 -156 163 177 269 300 284 331 17 31 9 41 -40 54 l-30 9 40 7
c22 3 60 6 85 5 40 -1 45 -4 48 -25z m1009 -67 c-48 -94 -107 -147 -183 -164
-36 -8 -32 -3 86 115 68 69 126 123 128 121 2 -2 -12 -35 -31 -72z m-2053 -74
c36 -13 58 -52 50 -86 -4 -16 -42 -113 -85 -216 -44 -103 -79 -199 -79 -212 0
-14 9 -31 22 -40 29 -20 18 -29 -17 -16 -35 13 -54 38 -55 68 0 12 32 98 71
190 112 262 113 270 46 313 -31 20 -31 21 -5 15 15 -3 38 -10 52 -16z m2088
-438 l57 -28 -141 -23 c-78 -13 -148 -25 -157 -28 -9 -3 22 16 69 42 47 25 89
51 95 56 12 12 12 12 77 -19z m-1052 -208 c0 -6 -37 -16 -82 -23 -46 -7 -94
-15 -108 -17 -14 -3 7 12 45 33 39 21 81 46 95 56 25 17 25 17 37 -10 7 -15
12 -33 13 -39z m-940 -159 c0 -6 -51 -19 -112 -29 -62 -10 -124 -20 -138 -22
-14 -3 2 6 36 19 33 13 89 39 125 59 l64 36 12 -27 c7 -14 12 -31 13 -36z"/>
<path d="M4151 4427 c-43 -14 -107 -74 -116 -110 -37 -146 189 -290 339 -218
59 29 86 73 86 140 0 89 -53 161 -139 190 -42 14 -124 13 -170 -2z m99 -80 c0
-5 -4 -5 -10 -2 -5 3 -10 14 -10 23 0 15 2 15 10 2 5 -8 10 -19 10 -23z m21 0
c-8 -8 -11 -7 -11 4 0 20 13 34 18 19 3 -7 -1 -17 -7 -23z m39 -2 c-7 -9 -15
-13 -18 -10 -3 2 1 11 8 20 7 9 15 13 18 10 3 -2 -1 -11 -8 -20z m-134 -32
c-7 -7 -26 7 -26 19 0 6 6 6 15 -2 9 -7 13 -15 11 -17z m-6 -23 c0 -13 -11
-13 -30 0 -12 8 -11 10 8 10 12 0 22 -4 22 -10z m200 0 c0 -5 -10 -10 -22 -10
-19 0 -20 2 -8 10 19 13 30 13 30 0z m-205 -30 c-3 -5 -13 -10 -21 -10 -8 0
-14 5 -14 10 0 6 9 10 21 10 11 0 17 -4 14 -10z m208 -7 c-7 -2 -21 -2 -30 0
-10 3 -4 5 12 5 17 0 24 -2 18 -5z m-13 -35 c0 -13 -23 -5 -28 10 -2 7 2 10
12 6 9 -3 16 -11 16 -16z m-158 -30 c-6 -6 -15 -8 -19 -4 -4 4 -1 11 7 16 19
12 27 3 12 -12z m34 -25 c-11 -11 -19 6 -11 24 8 17 8 17 12 0 3 -10 2 -21 -1
-24z m44 4 c0 -5 -4 -5 -10 -2 -5 3 -10 14 -10 23 0 15 2 15 10 2 5 -8 10 -19
10 -23z"/>
<path d="M3784 4342 c-15 -10 -24 -40 -18 -57 3 -8 45 -26 92 -41 82 -25 87
-25 99 -8 29 40 7 69 -73 94 -72 22 -84 23 -100 12z"/>
<path d="M3613 4199 c-18 -5 -48 -25 -68 -43 -31 -30 -36 -40 -33 -72 4 -49
25 -62 78 -48 54 15 59 2 10 -30 -53 -35 -62 -71 -26 -102 41 -36 98 -48 141
-30 37 16 39 20 36 101 -2 47 -1 49 13 30 30 -40 37 -45 61 -45 80 0 88 127
13 197 -51 48 -144 65 -225 42z m164 -38 c47 -22 71 -53 80 -105 10 -61 -34
-90 -59 -38 -9 18 -22 28 -40 30 -31 4 -36 -8 -40 -92 -4 -59 -23 -71 -82 -51
-65 23 -66 31 -12 78 39 35 47 47 42 64 -9 28 -36 36 -70 23 -43 -16 -56 -12
-56 15 0 75 141 119 237 76z"/>
<path d="M4531 4060 c-80 -19 -116 -76 -88 -135 55 -116 322 -57 282 62 -7 20
-26 36 -64 56 -57 28 -73 30 -130 17z m79 -100 c0 -5 -15 -10 -32 -10 -25 0
-29 3 -18 10 20 13 50 13 50 0z"/>
<path d="M4084 4011 c-51 -13 -114 -53 -134 -87 -11 -18 -20 -49 -20 -72 0
-52 26 -72 91 -72 148 0 277 128 211 210 -20 25 -92 35 -148 21z m37 -113
c-25 -20 -77 -26 -65 -7 9 15 67 38 78 32 5 -4 -1 -14 -13 -25z"/>
<path d="M3171 3888 c-45 -15 -111 -79 -111 -107 0 -61 52 -93 151 -93 82 0
133 22 167 73 30 44 26 85 -11 113 -33 24 -141 32 -196 14z m93 -87 c7 -11
-18 -21 -55 -21 -29 0 -39 14 -16 23 21 9 66 7 71 -2z"/>
<path d="M4585 3791 c-144 -35 -189 -162 -94 -266 56 -61 124 -88 210 -83 76
4 108 21 147 78 26 39 29 101 8 151 -40 94 -159 147 -271 120z m105 -65 c0 -8
-4 -18 -10 -21 -5 -3 -10 3 -10 14 0 12 5 21 10 21 6 0 10 -6 10 -14z m-36
-11 c3 -8 1 -15 -4 -15 -6 0 -10 7 -10 15 0 8 2 15 4 15 2 0 6 -7 10 -15z m61
-14 c-3 -6 -11 -11 -17 -11 -6 0 -6 6 2 15 14 17 26 13 15 -4z m-137 -19 c6
-18 -15 -14 -22 4 -4 10 -1 14 6 12 6 -2 14 -10 16 -16z m-3 -32 c8 -13 -15
-13 -35 0 -12 8 -11 10 7 10 12 0 25 -4 28 -10z m195 -10 c-19 -13 -30 -13
-30 0 0 6 10 10 23 10 18 0 19 -2 7 -10z m-195 -20 c-3 -5 -16 -10 -28 -10
-18 0 -19 2 -7 10 20 13 43 13 35 0z m205 -10 c0 -5 -6 -10 -14 -10 -8 0 -18
5 -21 10 -3 6 3 10 14 10 12 0 21 -4 21 -10z m-12 -38 c2 -7 -2 -10 -12 -6 -9
3 -16 11 -16 16 0 13 23 5 28 -10z m-156 -24 c-6 -6 -15 -8 -19 -4 -4 4 -1 11
7 16 19 12 27 3 12 -12z m38 0 c0 -7 -5 -20 -10 -28 -8 -12 -10 -9 -10 13 0
15 5 27 10 27 6 0 10 -6 10 -12z m34 -13 c3 -8 1 -15 -3 -15 -5 0 -11 7 -15
15 -3 8 -1 15 3 15 5 0 11 -7 15 -15z"/>
<path d="M3634 3731 c-50 -23 -89 -71 -105 -131 -11 -40 -10 -51 9 -92 30 -68
85 -101 174 -106 249 -14 344 229 128 327 -58 27 -150 27 -206 2z m113 -68
c-3 -10 -5 -4 -5 12 0 17 2 24 5 18 2 -7 2 -21 0 -30z m-27 1 c0 -8 -4 -12
-10 -9 -5 3 -10 13 -10 21 0 8 5 12 10 9 6 -3 10 -13 10 -21z m68 4 c-2 -6
-10 -14 -16 -16 -7 -2 -10 2 -6 12 7 18 28 22 22 4z m-122 -55 c-8 -8 -36 5
-36 17 0 7 6 7 21 0 11 -7 18 -14 15 -17z m194 8 c0 -5 -7 -11 -15 -15 -15 -5
-20 5 -8 17 9 10 23 9 23 -2z m-200 -31 c0 -5 -6 -10 -14 -10 -8 0 -18 5 -21
10 -3 6 3 10 14 10 12 0 21 -4 21 -10z m210 -10 c0 -5 -9 -10 -20 -10 -11 0
-20 5 -20 10 0 6 9 10 20 10 11 0 20 -4 20 -10z m-215 -20 c-3 -5 -14 -10 -23
-10 -15 0 -15 2 -2 10 20 13 33 13 25 0z m200 -10 c3 -5 -1 -10 -9 -10 -8 0
-18 5 -21 10 -3 6 1 10 9 10 8 0 18 -4 21 -10z m-135 -49 c0 -12 -20 -25 -27
-18 -7 7 6 27 18 27 5 0 9 -4 9 -9z m26 -28 c-11 -11 -19 6 -11 24 8 17 8 17
12 0 3 -10 2 -21 -1 -24z m44 16 c0 -6 -4 -7 -10 -4 -5 3 -10 11 -10 16 0 6 5
7 10 4 6 -3 10 -11 10 -16z"/>
<path d="M4122 3734 c-55 -39 -48 -88 16 -100 l37 -8 -44 -11 c-53 -13 -69
-33 -55 -72 12 -35 70 -75 104 -71 18 2 30 14 46 47 l21 44 6 -31 c5 -23 14
-33 32 -38 77 -19 114 103 55 186 -42 59 -166 90 -218 54z m131 -28 c75 -31
110 -116 69 -166 -23 -28 -42 -19 -42 20 0 58 -47 51 -76 -12 -10 -23 -24 -43
-30 -45 -15 -5 -74 45 -74 62 0 8 17 16 39 20 73 12 80 60 12 79 -17 5 -31 15
-31 22 0 33 76 44 133 20z"/>
<path d="M3130 3591 c-106 -34 -163 -122 -131 -203 26 -67 110 -72 112 -6 l0
33 19 -42 c25 -55 49 -68 95 -49 30 13 75 66 75 89 0 18 -43 47 -70 47 -16 0
-30 5 -30 10 0 6 9 10 21 10 57 0 78 49 36 88 -25 24 -89 35 -127 23z m109
-46 c18 -17 6 -35 -23 -35 -13 0 -31 -9 -42 -21 -19 -21 -18 -21 5 -40 13 -10
34 -19 47 -19 35 0 41 -26 14 -56 -36 -37 -62 -31 -85 19 -16 33 -25 42 -45
42 -21 0 -26 -5 -28 -32 -2 -24 -8 -33 -21 -33 -24 0 -45 50 -36 88 17 81 160
138 214 87z"/>
<path d="M4940 3551 c-48 -10 -60 -18 -60 -44 0 -44 12 -49 96 -42 102 9 114
12 114 36 0 44 -18 59 -68 58 -26 -1 -63 -4 -82 -8z"/>
<path d="M3381 3461 c-43 -8 -59 -31 -44 -64 11 -25 14 -25 95 -20 104 6 108
7 108 37 0 51 -52 67 -159 47z"/>
<path d="M2840 3297 c-72 -35 -85 -60 -51 -92 20 -17 23 -17 98 18 91 41 105
57 79 86 -26 28 -50 26 -126 -12z"/>
</g>
</svg>
